# xmcd CD database file
#
# Track frame offsets:
#	150
#	17924
#	39156
#	57456
#	73454
#	87271
#	118316
#	135476
#	154431
#	172503
#	185693
#	203216
#	220974
#	234688
#	250960
#	273229
#	288152
#	303245
#
# Disc length: 4257 seconds
#
# Revision: 1
# Processed by: cddbd v1.5.2PL0 Copyright (c) Steve Scherf et al.
# Submitted via: CDex 1.51
#
DISCID=0c109f12
DTITLE=Various Artist - MRH-124
DYEAR=1900
DGENRE=Blues
TTITLE0=Band Aid 30 - Do They Know It's Christmas (2014)
TTITLE1=Mark Ronson Ft Bruno Mars - Uptown Funk
TTITLE2=One Direction - Night Changes
TTITLE3=Oliver Heldens Ft Kstewart - Last All Night (koala)
TTITLE4=Idina Menzel and Michael Buble - Baby It's Cold Outside
TTITLE5=Ed Sheeran - Make It Rain
TTITLE6=Union J - You Got It All
TTITLE7=Taylor Swift - Blank Space
TTITLE8=Olly Murs Ft Demi Lovato - Up
TTITLE9=Ella Henderson - Yours
TTITLE10=Beyonce - 7/11
TTITLE11=Clean Bandit and Jess Glynne - Real Love
TTITLE12=Fith Harmony - Bo$$
TTITLE13=Gorgon City Ft Jennifer Hudson - Go All Night
TTITLE14=Labrinth - Jealous
TTITLE15=Meghan Trainor - Lips Are Moving
TTITLE16=Blonde Ft Melissa Steel - I Loved You
TTITLE17=McBusted - Air Guitar
EXTD=
EXTT0=
EXTT1=
EXTT2=
EXTT3=
EXTT4=
EXTT5=
EXTT6=
EXTT7=
EXTT8=
EXTT9=
EXTT10=
EXTT11=
EXTT12=
EXTT13=
EXTT14=
EXTT15=
EXTT16=
EXTT17=
PLAYORDER=
